# xmcd
#
# Track frame offsets: 
#        150
#        14844
#        29134
#        49255
#        68755
#        86808
#        98143
#        110079
#        128114
#        142376
#        155780
#        177374
#        191994
#        205466
#        225940
#        237080
#        263108
#        283531
#        295398
#        311803
#        324909
#        338703
#
# Disc length: 4784 seconds
#
# Revision: 0
# Processed by: cddbd v1.5.2PL0 Copyright (c) Steve Scherf et al.
# Submitted via: ExactAudioCopy v0.95a5
#
DISCID=5e12ae16
DTITLE=Various Artist - It's Country Blues  part4 CD1
DYEAR=2007
DGENRE=Blues
TTITLE0=Sunrise - NORAH JONES
TTITLE1=Don't Cry Sister - J.J.CALE and ERIC CLAPTON
TTITLE2=Ice Cream Man - TONY JOE WHITE
TTITLE3=Queen Og England - ROGER GLOVER
TTITLE4=Tear It Up - ALBERT LEE and HOGAN'S HEROES
TTITLE5=When You Were Young - AMERICAN BLUES BOX
TTITLE6=Midlife Crisis Blues - INNES SIBUN
TTITLE7=Nobody Dies From a Broken Heart - REBA McENTIRE
TTITLE8=South Of the Border  Down Mexico Way - CHRIS ISAAK
TTITLE9=Louisiana Man - TAB BENOIT
TTITLE10=If You See Me Getting Smaller - ALBERT LEE and  HOGAN'S HEROES
TTITLE11=Drifter's Escape - GEORGE THOROGOOD
TTITLE12=Cowgirl Queen - ERIC BIBB
TTITLE13=Wedding Song - MARIA MULDAUR
TTITLE14=Biloxi Flattop - DANNY JOHNSON
TTITLE15='Til I Gain Control Again - ALBERT LEE and HOGAN'S HEROES
TTITLE16=Weeping Willow Tree - COLIN JAMES
TTITLE17=Waiting For My Lucky Day - CHRIS ISAAK
TTITLE18=Talk - KEB' MO'
TTITLE19=You're The Kind Of Trouble - SOLOMON BURKE
TTITLE20=Creepin In - NORAH JONES
TTITLE21=What My Momma Told Me,That's All Right - JUNIOR WELLS
EXTD=
EXTT0=
EXTT1=
EXTT2=
EXTT3=
EXTT4=
EXTT5=
EXTT6=
EXTT7=
EXTT8=
EXTT9=
EXTT10=
EXTT11=
EXTT12=
EXTT13=
EXTT14=
EXTT15=
EXTT16=
EXTT17=
EXTT18=
EXTT19=
EXTT20=
EXTT21=
PLAYORDER=
